<?xml version="1.0" encoding="utf-8"?>
<!-- Generator: Adobe Illustrator 27.2.0, SVG Export Plug-In . SVG Version: 6.00 Build 0)  -->
<svg version="1.1" id="Layer_1" xmlns="http://www.w3.org/2000/svg" xmlns:xlink="http://www.w3.org/1999/xlink" x="0px" y="0px"
	 viewBox="0 0 2048 2048" style="enable-background:new 0 0 2048 2048;" xml:space="preserve">
<style type="text/css">
	.st0{fill:#993399;}
</style>
<g>
	<g>
		<path class="st0" d="M131.39,318.37h14.28c24.72,0,53.29,3.84,85.69,11.42c32.35,7.63,61.86,19.99,88.54,37.13
			c26.64,17.14,49.49,40.97,68.55,71.41c19.01,30.48,28.56,68.55,28.56,114.25c0,38.11-7.14,70.47-21.42,97.11
			c-14.28,26.69-32.85,48.56-55.7,65.69c-22.85,17.14-47.62,29.55-74.26,37.13c-26.69,7.63-52.39,11.42-77.12,11.42
			c-22.85,0-45.7-5.71-68.55-17.14c-22.85-11.42-42.84-26.15-59.98-44.27c-17.14-18.08-31.42-38.07-42.84-59.98
			C5.71,620.68,0,599.26,0,578.29c0-19.01,7.14-43.29,21.42-72.83c14.28-29.5,31.86-49.98,52.84-61.41
			c-11.42-11.42-17.14-27.58-17.14-48.56c0-17.14,5.71-33.29,17.14-48.56C85.69,331.71,104.7,322.21,131.39,318.37z M131.39,1403.74
			h14.28c24.72,0,53.29,3.84,85.69,11.42c32.35,7.63,61.86,20,88.54,37.13c26.64,17.13,49.49,40.97,68.55,71.41
			c19.01,30.48,28.56,68.55,28.56,114.25c0,38.11-7.14,70.47-21.42,97.11c-14.28,26.69-32.85,48.55-55.7,65.69
			c-22.85,17.14-47.62,29.55-74.26,37.13c-26.69,7.63-52.39,11.42-77.12,11.42c-22.85,0-45.7-5.71-68.55-17.14
			c-22.85-11.42-42.84-26.15-59.98-44.27c-17.14-18.07-31.42-38.07-42.84-59.98C5.71,1706.06,0,1684.63,0,1663.66
			c0-19.01,7.14-43.29,21.42-72.83c14.28-29.5,31.86-49.98,52.84-61.41c-11.42-11.43-17.14-27.58-17.14-48.56
			c0-17.14,5.71-33.29,17.14-48.56C85.69,1417.09,104.7,1407.58,131.39,1403.74z"/>
	</g>
	<g>
		<path class="st0" d="M894.08,319.94c-15.26-20.93-22.85-39.99-22.85-57.13c0-28.56,13.3-53.29,39.99-74.26
			c26.64-20.93,54.27-31.42,82.83-31.42c19.01,0,36.64,6.2,52.84,18.57c16.16,12.41,31.42,28.12,45.7,47.13
			c14.28,19.06,27.58,38.56,39.99,58.55c12.36,19.99,23.3,38.56,32.85,55.7c43.78-38.07,93.27-70.42,148.53-97.11
			c55.2-26.64,117.1-39.99,185.66-39.99c98.99,0,182.31,15.71,249.92,47.13c67.57,31.42,122.82,72.83,165.66,124.25
			s74.71,109.97,95.68,175.66c20.93,65.69,33.29,132.82,37.13,201.37c0,55.25-10.49,113.31-31.42,174.23
			c-20.97,60.96-52.39,117.6-94.26,169.95c-41.91,52.39-95.24,95.68-159.95,129.96c-64.76,34.28-140.94,51.41-228.5,51.41
			c-51.41,0-98.54-4.73-141.38-14.28c-42.84-9.51-82.38-21.87-118.53-37.13c0,114.25-1.92,222.79-5.71,325.61
			c-3.84,102.83-10.49,188.51-19.99,257.07c-3.84,28.56-15.71,49.98-35.7,64.27c-19.99,14.28-40.48,21.42-61.41,21.42
			c-32.4,0-61.41-8.57-87.11-25.71c-25.71-17.14-38.56-40.97-38.56-71.41c0-79.97,3.3-173.25,10-279.91
			c6.65-106.62,10-218.01,10-334.18c0-110.41-0.98-219.93-2.86-328.47c-1.92-108.54-5.71-205.65-11.42-291.34
			c-17.14-36.15-37.13-75.2-59.98-117.11C948.35,400.89,922.64,359.92,894.08,319.94z M1251.11,548.43
			c5.71,68.55,10,140.45,12.85,215.65c2.86,75.24,5.22,150.93,7.14,227.07c32.35,30.48,69,51.9,109.96,64.27
			c40.93,12.41,89.97,18.56,147.1,18.56s104.7-12.36,142.81-37.13c38.07-24.72,68.55-55.21,91.4-91.4
			c22.85-36.15,39.01-74.71,48.56-115.68c9.51-40.92,14.28-77.56,14.28-109.96c-3.84-34.28-12.41-69.49-25.71-105.68
			c-13.34-36.15-32.4-68.55-57.13-97.11c-24.77-28.56-55.7-52.35-92.83-71.41c-37.13-19.01-81.4-28.56-132.82-28.56
			c-66.68,0-120.94,12.41-162.8,37.13C1312.03,478.95,1277.75,510.37,1251.11,548.43z"/>
	</g>
</g>
</svg>
